<?xml version="1.0" encoding="UTF-8" standalone="no"?>
<!-- Created with Inkscape (http://www.inkscape.org/) -->

<svg
   xmlns:dc="http://purl.org/dc/elements/1.1/"
   xmlns:cc="http://creativecommons.org/ns#"
   xmlns:rdf="http://www.w3.org/1999/02/22-rdf-syntax-ns#"
   xmlns:svg="http://www.w3.org/2000/svg"
   xmlns="http://www.w3.org/2000/svg"
   xmlns:xlink="http://www.w3.org/1999/xlink"
   xmlns:sodipodi="http://sodipodi.sourceforge.net/DTD/sodipodi-0.dtd"
   xmlns:inkscape="http://www.inkscape.org/namespaces/inkscape"
   width="143mm"
   height="148mm"
   viewBox="0 0 506.69272 524.40947"
   id="svg4355"
   version="1.1"
   inkscape:version="0.91 r13725"
   sodipodi:docname="cell-spritesheet.svg">
  <defs
     id="defs4357">
    <radialGradient
       inkscape:collect="always"
       xlink:href="#linearGradient4205"
       id="radialGradient4173"
       cx="297.45367"
       cy="455.81824"
       fx="297.45367"
       fy="455.81824"
       r="241.84451"
       gradientTransform="matrix(1.0336523,-0.54226345,0.45903885,0.87501101,207.01912,187.26602)"
       gradientUnits="userSpaceOnUse" />
    <linearGradient
       inkscape:collect="always"
       id="linearGradient4205">
      <stop
         style="stop-color:#fffffc;stop-opacity:1"
         offset="0"
         id="stop4169" />
      <stop
         style="stop-color:#48ffb4;stop-opacity:0"
         offset="1"
         id="stop4171" />
    </linearGradient>
  </defs>
  <sodipodi:namedview
     id="base"
     pagecolor="#ffffff"
     bordercolor="#666666"
     borderopacity="1.0"
     inkscape:pageopacity="0.0"
     inkscape:pageshadow="2"
     inkscape:zoom="0.98994949"
     inkscape:cx="408.57208"
     inkscape:cy="295.56093"
     inkscape:document-units="px"
     inkscape:current-layer="layer1"
     showgrid="false"
     inkscape:window-width="1920"
     inkscape:window-height="1018"
     inkscape:window-x="-8"
     inkscape:window-y="-8"
     inkscape:window-maximized="1" />
  <metadata
     id="metadata4360">
    <rdf:RDF>
      <cc:Work
         rdf:about="">
        <dc:format>image/svg+xml</dc:format>
        <dc:type
           rdf:resource="http://purl.org/dc/dcmitype/StillImage" />
        <dc:title></dc:title>
      </cc:Work>
    </rdf:RDF>
  </metadata>
  <g
     inkscape:label="Layer 1"
     inkscape:groupmode="layer"
     id="layer1"
     transform="translate(0,-527.95285)">
    <rect
       style="display:inline;fill:#7b90b4;fill-opacity:1;fill-rule:nonzero;stroke:#ffffff;stroke-width:3.73200011;stroke-linejoin:round;stroke-miterlimit:4;stroke-dasharray:none;stroke-dashoffset:0;stroke-opacity:0.65317915"
       id="rect4281"
       width="122.14286"
       height="12.857142"
       x="78.556488"
       y="537.55402" />
    <rect
       style="display:inline;fill:#7b90b4;fill-opacity:1;fill-rule:nonzero;stroke:#ffffff;stroke-width:4.41005278;stroke-linejoin:round;stroke-miterlimit:4;stroke-dasharray:none;stroke-dashoffset:0;stroke-opacity:0.65317915"
       id="rect4281-0"
       width="180.05365"
       height="12.17909"
       x="202.82706"
       y="537.61969" />
    <rect
       style="display:inline;fill:#7b90b4;fill-opacity:1;fill-rule:nonzero;stroke:#ffffff;stroke-width:3.03057075;stroke-linejoin:round;stroke-miterlimit:4;stroke-dasharray:none;stroke-dashoffset:0;stroke-opacity:0.65317915"
       id="rect4281-2"
       width="76.377274"
       height="13.558572"
       x="90.993645"
       y="553.16107" />
    <path
       style="display:inline;fill:#320080;fill-opacity:1;fill-rule:nonzero;stroke:#6f4ac4;stroke-width:1.16731226;stroke-linecap:round;stroke-linejoin:round;stroke-miterlimit:4;stroke-dasharray:none;stroke-dashoffset:0;stroke-opacity:1"
       d="m 462.10374,936.37688 -1.85003,10.98703 a 42.228086,47.727644 0 0 1 32.26699,46.31215 42.228086,47.727644 0 0 1 -27.03612,44.51424 l 3.55544,12.2587 a 52.599896,59.450222 0 0 0 34.96354,-55.93976 52.599896,59.450222 0 0 0 -41.89982,-58.13236 z"
       id="path4679"
       inkscape:connector-curvature="0" />
    <path
       style="display:inline;fill:#320080;fill-opacity:1;fill-rule:nonzero;stroke:#6f4ac4;stroke-width:1.10916626;stroke-linecap:round;stroke-linejoin:round;stroke-miterlimit:4;stroke-dasharray:none;stroke-dashoffset:0;stroke-opacity:1"
       d="m 422.4148,990.32205 -3.44859,9.88645 a 48.031144,37.885032 78.807751 0 1 21.58884,40.1126 l 10.37496,3.8625 A 59.828267,47.190129 78.80775 0 0 422.4148,990.32205 Z"
       id="path4679-6"
       inkscape:connector-curvature="0" />
    <path
       style="display:inline;fill:#320080;fill-opacity:1;fill-rule:nonzero;stroke:#6f4ac4;stroke-width:0.93045485;stroke-linecap:round;stroke-linejoin:round;stroke-miterlimit:4;stroke-dasharray:none;stroke-dashoffset:0;stroke-opacity:1"
       d="m 484.95728,981.29848 -8.66673,0.53264 a 31.909165,40.130312 3.1075095 0 1 0.20401,3.17977 31.909165,40.130312 3.1075095 0 1 -19.72823,38.61921 l 2.8837,10.1235 a 39.746504,49.986879 3.1075096 0 0 25.54081,-48.578 39.746504,49.986879 3.1075096 0 0 -0.23356,-3.87712 z"
       id="path4714"
       inkscape:connector-curvature="0" />
    <g
       id="g5209"
       transform="translate(36.347774,141.22047)">
      <path
         inkscape:connector-curvature="0"
         id="path4400-8-9"
         d="m 391.62381,459.32704 0.39534,-9.03686"
         style="display:inline;fill:#cccccc;fill-rule:evenodd;stroke:#ffffff;stroke-width:0.58099687px;stroke-linecap:butt;stroke-linejoin:miter;stroke-opacity:0.73410405" />
      <path
         inkscape:connector-curvature="0"
         id="path4400-8-33"
         d="m 386.46897,409.78448 0.35519,7.90014"
         style="display:inline;fill:#cccccc;fill-rule:evenodd;stroke:#ffffff;stroke-width:0.54513425px;stroke-linecap:butt;stroke-linejoin:miter;stroke-opacity:0.73410405" />
      <ellipse
         inkscape:transform-center-y="-68.185675"
         inkscape:transform-center-x="86.924901"
         transform="matrix(0.96708545,-0.25445182,0.91073418,0.41299305,0,0)"
         ry="6.9423137"
         rx="12.033729"
         cy="778.37781"
         cx="-331.9646"
         id="path4348-6"
         style="display:inline;fill:#7b90b4;fill-opacity:1;fill-rule:nonzero;stroke:#ffffff;stroke-width:1.4866941;stroke-linecap:square;stroke-linejoin:round;stroke-miterlimit:4;stroke-dasharray:none;stroke-dashoffset:0;stroke-opacity:0.65317915" />
      <g
         id="g5198">
        <path
           style="display:inline;fill:#cccccc;fill-rule:evenodd;stroke:#ffffff;stroke-width:0.54308057px;stroke-linecap:butt;stroke-linejoin:miter;stroke-opacity:0.73410405"
           d="m 412.04501,490.17106 8.32142,0"
           id="path4400-8-4"
           inkscape:connector-curvature="0" />
        <g
           id="g5191">
          <path
             inkscape:connector-curvature="0"
             id="path4400-8-3"
             d="m 424.17572,461.9504 9.97128,0"
             style="display:inline;fill:#cccccc;fill-rule:evenodd;stroke:#ffffff;stroke-width:0.59448528px;stroke-linecap:butt;stroke-linejoin:miter;stroke-opacity:0.73410405" />
          <path
             inkscape:connector-curvature="0"
             id="path4400-8-30"
             d="m 449.10124,481.39584 8.38029,0"
             style="display:inline;fill:#cccccc;fill-rule:evenodd;stroke:#ffffff;stroke-width:0.54499835px;stroke-linecap:butt;stroke-linejoin:miter;stroke-opacity:0.73410405" />
          <path
             sodipodi:nodetypes="ccccccccccccccccccccccccccccccc"
             inkscape:connector-curvature="0"
             id="path4288"
             d="m 426.28984,429.21334 c -23.68383,-18.53046 -56.99719,-15.66876 -66.90696,4.82545 -0.32108,11.61392 9.9338,6.26864 15.34206,2.9332 1.1145,-0.67829 2.26571,-1.29402 3.44933,-1.84485 1.18367,-0.55056 2.39825,-1.03556 3.63918,-1.45317 1.24082,-0.41785 2.50645,-0.7678 3.79214,-1.04854 1.2855,-0.28089 2.58944,-0.49226 3.90697,-0.6333 1.31776,-0.14063 2.6474,-0.21073 3.98399,-0.21006 1.33672,6e-4 2.67869,0.072 4.0209,0.2139 1.34217,0.14168 2.68289,0.35369 4.01715,0.63527 1.3341,0.28173 2.6601,0.63265 3.97297,1.05145 1.31289,0.41875 2.61103,0.90484 3.88957,1.45645 1.27871,0.55149 2.53622,1.16786 3.76784,1.84674 1.23167,0.67914 2.43584,1.42001 3.60806,2.21978 0.82977,0.56596 1.64291,1.16098 2.43789,1.78401 1.12275,0.88019 2.20802,1.81525 3.25176,2.80167 1.0441,0.98671 2.04534,2.02358 2.99996,3.10673 0.95437,1.0827 1.86097,2.21029 2.71639,3.37857 0.85531,1.16839 1.65835,2.37598 2.40613,3.61826 0.74809,1.24242 1.43997,2.51801 2.07305,3.82195 0.63282,1.30396 1.20602,2.63466 1.71748,3.98709 0.51168,1.35231 0.96097,2.72468 1.34621,4.11196 0.38518,1.38738 0.70581,2.78794 0.9607,4.1964 0.25493,1.40804 0.44381,2.82223 0.56598,4.23729 0.12199,1.41551 0.17708,2.83008 0.16502,4.23847 -0.0119,1.40832 -0.0907,2.80869 -0.23655,4.19583 -0.14594,1.38696 -0.35851,2.75897 -0.63691,4.11089 -0.27853,1.35223 -0.62258,2.6827 -1.03082,3.98634 -2.89116,8.67306 3.27854,13.20587 8.49701,8.82751 9.99211,-7.56306 5.96461,-51.82709 -17.71649,-70.3953 z"
             style="fill:#7b90b4;fill-opacity:1;fill-rule:nonzero;stroke:#ffffff;stroke-width:2.17731929;stroke-linecap:square;stroke-linejoin:round;stroke-miterlimit:4;stroke-dasharray:none;stroke-dashoffset:0;stroke-opacity:0.65317915" />
          <path
             sodipodi:nodetypes="ccccccccccccccccccccccccccccccc"
             inkscape:connector-curvature="0"
             id="path4288-8"
             d="m 415.04408,448.06681 c -15.39622,-12.423 -37.05233,-10.50451 -43.49441,3.23504 -0.20873,7.78609 6.4577,4.20257 9.97345,1.96644 0.72452,-0.45473 1.47289,-0.86753 2.24232,-1.23681 0.76947,-0.3691 1.55905,-0.69424 2.36574,-0.97421 0.80662,-0.28014 1.62937,-0.51475 2.46516,-0.70295 0.83567,-0.18831 1.68334,-0.33002 2.53982,-0.42458 0.85663,-0.0942 1.72101,-0.14128 2.58989,-0.14082 0.86896,4e-4 1.74134,0.0483 2.61388,0.14339 0.8725,0.095 1.74406,0.23712 2.61143,0.4259 0.86726,0.18888 1.72926,0.42413 2.58272,0.7049 0.85347,0.28073 1.69735,0.60661 2.5285,0.97641 0.83127,0.36974 1.64874,0.78296 2.44939,1.23809 0.80067,0.4553 1.58346,0.95199 2.34549,1.48817 0.53942,0.37941 1.06802,0.77833 1.5848,1.19601 0.72987,0.59008 1.43538,1.21696 2.11389,1.87828 0.67875,0.66149 1.32962,1.35662 1.95019,2.08277 0.62041,0.72586 1.20977,1.48182 1.76586,2.26503 0.556,0.7833 1.07804,1.59289 1.56415,2.42572 0.48632,0.83294 0.93609,1.68809 1.34763,2.56227 0.41138,0.87419 0.78402,1.7663 1.11649,2.67299 0.33263,0.90661 0.62471,1.82665 0.87514,2.7567 0.2504,0.93011 0.45882,1.86907 0.62452,2.81332 0.16573,0.94397 0.28851,1.89206 0.36793,2.84072 0.0793,0.94897 0.11512,1.89732 0.10729,2.84151 -0.008,0.94416 -0.0591,1.88298 -0.15378,2.81294 -0.0949,0.92983 -0.23307,1.84964 -0.41405,2.75598 -0.18106,0.90656 -0.40471,1.7985 -0.67011,2.67247 -1.87946,5.81452 2.13129,8.85336 5.52368,5.91807 6.4956,-5.07036 3.87744,-34.74544 -11.51701,-47.19375 z"
             style="display:inline;fill:#7b90b4;fill-opacity:1;fill-rule:nonzero;stroke:#ffffff;stroke-width:1.43738663;stroke-linecap:square;stroke-linejoin:round;stroke-miterlimit:4;stroke-dasharray:none;stroke-dashoffset:0;stroke-opacity:0.65317915" />
          <ellipse
             inkscape:transform-center-y="19.642304"
             inkscape:transform-center-x="-104.46269"
             transform="matrix(-0.12757339,0.99182913,-0.91368823,0.40641581,0,0)"
             ry="6.1798773"
             rx="20.494328"
             cy="-608.55219"
             cx="736.57166"
             id="path4348"
             style="fill:#7b90b4;fill-opacity:1;fill-rule:nonzero;stroke:#ffffff;stroke-width:1.83052707;stroke-linecap:square;stroke-linejoin:round;stroke-miterlimit:4;stroke-dasharray:none;stroke-dashoffset:0;stroke-opacity:0.65317915" />
        </g>
        <ellipse
           style="display:inline;fill:#7b90b4;fill-opacity:1;fill-rule:nonzero;stroke:#ffffff;stroke-width:1.4866941;stroke-linecap:square;stroke-linejoin:round;stroke-miterlimit:4;stroke-dasharray:none;stroke-dashoffset:0;stroke-opacity:0.65317915"
           id="path4348-6-8"
           cx="-412.55237"
           cy="867.08911"
           rx="12.033729"
           ry="6.9423137"
           transform="matrix(0.96708545,-0.25445182,0.91073418,0.41299305,0,0)"
           inkscape:transform-center-x="86.924901"
           inkscape:transform-center-y="-68.185675" />
        <ellipse
           style="display:inline;fill:#7b90b4;fill-opacity:1;fill-rule:nonzero;stroke:#ffffff;stroke-width:1.4866941;stroke-linecap:square;stroke-linejoin:round;stroke-miterlimit:4;stroke-dasharray:none;stroke-dashoffset:0;stroke-opacity:0.65317915"
           id="path4348-6-7"
           cx="955.41473"
           cy="-546.07764"
           rx="12.033729"
           ry="6.9423137"
           transform="matrix(0.12441863,0.99222981,-0.52972557,0.8481691,0,0)"
           inkscape:transform-center-x="-79.074879"
           inkscape:transform-center-y="-77.151648" />
      </g>
    </g>
    <g
       id="g5175"
       transform="translate(-148.2229,77.153951)">
      <ellipse
         ry="45.679565"
         rx="45.235764"
         cy="515.67474"
         cx="194.70706"
         id="path4285"
         style="display:inline;fill:#7b90b4;fill-opacity:1;fill-rule:nonzero;stroke:#ffffff;stroke-width:3.45481467;stroke-linejoin:round;stroke-miterlimit:4;stroke-dasharray:none;stroke-dashoffset:0;stroke-opacity:0.65317915" />
      <g
         id="g5161">
        <rect
           style="fill:#320080;fill-opacity:1;fill-rule:nonzero;stroke:#6f4ac4;stroke-width:1.04799998;stroke-linecap:round;stroke-linejoin:round;stroke-miterlimit:4;stroke-dasharray:none;stroke-dashoffset:0;stroke-opacity:1"
           id="rect4609"
           width="31.996582"
           height="39.50959"
           x="188.47992"
           y="500.57611" />
        <g
           id="g5149">
          <g
             id="g5137">
            <circle
               style="fill:#54428d;fill-opacity:1;fill-rule:nonzero;stroke:#6922ce;stroke-width:1.04799998;stroke-linecap:square;stroke-linejoin:round;stroke-miterlimit:4;stroke-dasharray:none;stroke-dashoffset:0;stroke-opacity:0.63005784"
               id="path4481"
               cx="204.84439"
               cy="515.0592"
               r="9.3133783" />
            <circle
               style="fill:#7b90b4;fill-opacity:1;fill-rule:nonzero;stroke:#6922ce;stroke-width:1.04184067;stroke-linecap:square;stroke-linejoin:round;stroke-miterlimit:4;stroke-dasharray:none;stroke-dashoffset:0;stroke-opacity:0.63005784"
               id="path4481-8"
               cx="204.85205"
               cy="515.06683"
               r="7.7749538" />
          </g>
          <g
             id="g5141">
            <path
               style="fill:none;fill-rule:evenodd;stroke:#6f4ac4;stroke-width:1px;stroke-linecap:round;stroke-linejoin:miter;stroke-opacity:1"
               d="m 204.72915,514.95731 c 2.58928,-11.83036 2.76786,-12.41071 2.76786,-12.41071"
               id="path4499"
               inkscape:connector-curvature="0"
               sodipodi:nodetypes="cc" />
            <path
               style="display:inline;fill:none;fill-rule:evenodd;stroke:#6f4ac4;stroke-width:1px;stroke-linecap:round;stroke-linejoin:miter;stroke-opacity:1"
               d="m 204.81783,514.93529 12.91659,-3.6418"
               id="path4499-6"
               inkscape:connector-curvature="0"
               sodipodi:nodetypes="cc" />
            <path
               style="display:inline;fill:none;fill-rule:evenodd;stroke:#6f4ac4;stroke-width:1px;stroke-linecap:round;stroke-linejoin:miter;stroke-opacity:1"
               d="m 192.58753,518.38987 12.47909,-3.5793"
               id="path4499-6-0"
               inkscape:connector-curvature="0"
               sodipodi:nodetypes="cc" />
            <path
               style="fill:none;fill-rule:evenodd;stroke:#6f4ac4;stroke-width:1px;stroke-linecap:round;stroke-linejoin:miter;stroke-opacity:1"
               d="m 202.09351,526.98266 c 2.58928,-11.83037 2.76786,-12.41072 2.76786,-12.41072"
               id="path4499-0"
               inkscape:connector-curvature="0"
               sodipodi:nodetypes="cc" />
            <path
               style="display:inline;fill:none;fill-rule:evenodd;stroke:#6f4ac4;stroke-width:1px;stroke-linecap:round;stroke-linejoin:miter;stroke-opacity:1"
               d="m 204.86318,514.95764 9.29159,9.26445"
               id="path4499-6-02"
               inkscape:connector-curvature="0"
               sodipodi:nodetypes="cc" />
            <path
               style="display:inline;fill:none;fill-rule:evenodd;stroke:#6f4ac4;stroke-width:1px;stroke-linecap:round;stroke-linejoin:miter;stroke-opacity:1"
               d="m 195.76943,506.02014 9.29159,9.26445"
               id="path4499-6-02-7"
               inkscape:connector-curvature="0"
               sodipodi:nodetypes="cc" />
          </g>
        </g>
      </g>
    </g>
    <circle
       inkscape:transform-center-y="11.61674"
       inkscape:transform-center-x="-0.25253816"
       style="display:inline;fill:#7b90b4;fill-opacity:1;fill-rule:nonzero;stroke:#6f4ac4;stroke-width:1.04799998;stroke-linecap:round;stroke-linejoin:round;stroke-miterlimit:4;stroke-dasharray:none;stroke-dashoffset:0;stroke-opacity:1"
       id="path4746-8"
       cx="21.952826"
       cy="652.85193"
       r="2.125" />
    <g
       id="g5270">
      <path
         inkscape:connector-curvature="0"
         id="path4398"
         d="M 157.52813,713.25014 128.9567,713.07156"
         style="display:inline;fill:none;fill-rule:evenodd;stroke:#000000;stroke-width:1px;stroke-linecap:butt;stroke-linejoin:miter;stroke-opacity:1" />
      <path
         inkscape:connector-curvature="0"
         id="path4344"
         d="m 6.063852,778.46443 c 46.000001,0 46.000001,2 46.000001,2"
         style="display:inline;fill:none;fill-rule:evenodd;stroke:#000000;stroke-width:1px;stroke-linecap:butt;stroke-linejoin:miter;stroke-opacity:1" />
      <path
         inkscape:connector-curvature="0"
         id="path4346"
         d="m 171.81384,567.71444 4.5,45.75"
         style="display:inline;fill:#410000;fill-opacity:1;fill-rule:evenodd;stroke:#000000;stroke-width:1px;stroke-linecap:butt;stroke-linejoin:miter;stroke-opacity:1" />
      <circle
         r="247.91901"
         cy="802.17877"
         cx="253.77808"
         id="path4148"
         style="display:inline;fill:#7e85b4;fill-opacity:1;fill-rule:nonzero;stroke:#ffffff;stroke-width:1.97628403;stroke-miterlimit:4;stroke-dasharray:none;stroke-dashoffset:0;stroke-opacity:1" />
      <ellipse
         transform="matrix(0.74067455,0.67186399,-0.67186399,0.74067455,0,0)"
         ry="241.18594"
         rx="241.02841"
         cy="423.80359"
         cx="726.75153"
         id="path4148-9"
         style="display:inline;fill:url(#radialGradient4173);fill-opacity:1;fill-rule:nonzero;stroke:#ffffff;stroke-width:1.63199997;stroke-miterlimit:4;stroke-dasharray:none;stroke-dashoffset:0;stroke-opacity:1" />
      <path
         transform="matrix(1.0452947,-0.15951808,0.16151671,1.0433805,-121.39623,387.09624)"
         d="m 454.56866,571.35839 -70.99201,58.49821 -89.34302,21.90279 -89.99854,-19.03076 -72.82875,-56.19502 -41.234332,-82.22917 -1.472945,-91.97683 38.580177,-83.50735 70.99201,-58.49821 89.34302,-21.90279 89.99854,19.03076 72.82875,56.19502 41.23433,82.22917 1.47295,91.97683 z"
         inkscape:randomized="0"
         inkscape:rounded="0"
         inkscape:flatsided="true"
         sodipodi:arg2="0.88158497"
         sodipodi:arg1="0.65718549"
         sodipodi:r2="201.51425"
         sodipodi:r1="206.69656"
         sodipodi:cy="445.08932"
         sodipodi:cx="290.92395"
         sodipodi:sides="14"
         id="path4182"
         style="display:inline;fill:none;fill-opacity:1;fill-rule:nonzero;stroke:#ffffff;stroke-width:1.63199997;stroke-miterlimit:4;stroke-dasharray:none;stroke-dashoffset:0;stroke-opacity:0.63005784"
         sodipodi:type="star" />
      <path
         transform="matrix(0.98661513,-0.617089,0.62736241,1.0030405,-310.53694,535.04167)"
         d="m 384.99999,556.23737 -58.63081,32.59266 -66.96596,3.92601 -62.03768,-25.51822 -44.82208,-49.90827 -18.7289,-64.41336 11.07374,-66.16061 38.68312,-54.80393 58.63081,-32.59265 66.96596,-3.92602 62.03768,25.51823 44.82208,49.90827 18.72891,64.41336 -11.07375,66.16061 z"
         inkscape:randomized="0"
         inkscape:rounded="0"
         inkscape:flatsided="true"
         sodipodi:arg2="1.0634374"
         sodipodi:arg1="0.83903793"
         sodipodi:r2="146.95041"
         sodipodi:r1="150.72952"
         sodipodi:cy="444.09451"
         sodipodi:cx="284.28571"
         sodipodi:sides="14"
         id="path4193"
         style="display:inline;fill:none;fill-opacity:1;fill-rule:nonzero;stroke:#ffffff;stroke-width:1.63199997;stroke-miterlimit:4;stroke-dasharray:none;stroke-dashoffset:0;stroke-opacity:0.65317915"
         sodipodi:type="star" />
      <path
         inkscape:connector-curvature="0"
         id="path4185"
         d="m 315.92098,595.75015 c 55.71429,-3.92858 55.71429,-3.92858 55.71429,-3.92858 27.5,50 27.5,50 27.5,50 51.78571,21.78571 51.78571,22.14285 51.78571,22.14285"
         style="display:inline;fill:none;fill-rule:evenodd;stroke:#ffffff;stroke-width:1px;stroke-linecap:butt;stroke-linejoin:miter;stroke-opacity:0.65317915" />
      <path
         inkscape:connector-curvature="0"
         id="path4187"
         d="m 450.56384,663.96442 5.71429,57.14286"
         style="display:inline;fill:none;fill-rule:evenodd;stroke:#ffffff;stroke-width:1px;stroke-linecap:butt;stroke-linejoin:miter;stroke-opacity:0.65317915" />
      <path
         inkscape:connector-curvature="0"
         id="path4189"
         d="m 455.56384,721.10728 c 36.07143,41.78571 36.07143,42.14286 36.07143,42.14286 l -18.92857,53.57143 10,58.21429 -36.78572,35.71429 -15,54.28571 -49.64285,18.57143 -37.85715,42.14281 -52.14285,-5.7143 -54.64286,22.1429 -42.14286,-27.1429 -60.35714,-3.5714 -25,-43.92854 -54.999987,-29.28571 -1.42857,-49.28572 -37.857147,-52.5 20.714286,-43.21428 -11.785714,-66.07144 40.000005,-27.85715 19.64285,-67.85713 44.285707,-3.92857 31.42857,-47.14286 57.85714,10 46.42857,-28.92857 52.85715,34.28572"
         style="display:inline;fill:none;fill-rule:evenodd;stroke:#ffffff;stroke-width:1px;stroke-linecap:butt;stroke-linejoin:miter;stroke-opacity:0.65317915" />
      <path
         inkscape:connector-curvature="0"
         id="path4197"
         d="m 216.96619,590.42877 40.15357,37.62818 58.33631,-31.8198 17.67767,55.05331 66.16499,-9.59645 -7.57615,61.87183 64.64977,18.43529 -34.34519,55.05331 50.76017,40.15358 -54.72349,38.18498 27.85714,54.28572 -66.07143,15 1.07143,57.85714 -63.57143,-13.57143 -26.07142,51.78567 -51.78572,-39.64281 -45.35714,33.21431 -30,-54.64288 -54.64286,7.85714 -4.99999,-61.07143 -51.785707,-17.5 22.14285,-55 -38.571425,-40.35714 42.500005,-38.2143 -15.35715,-56.42857 52.857137,-12.85714 11.78571,-59.64285 52.5,13.92857 z"
         style="display:inline;fill:none;fill-rule:evenodd;stroke:#ffffff;stroke-width:1px;stroke-linecap:butt;stroke-linejoin:miter;stroke-opacity:0.65317915" />
      <path
         inkscape:connector-curvature="0"
         id="rect4208"
         d="m 128.02282,612.65901 0,103.83202 -76.880847,0 0,129.94728 45.60352,0 0,104.39648 88.341787,0 0,65.22851 137.38086,0 0,-39.28515 70.71484,0 0,-87.6289 58.08398,0 0,-188.22658 -58.93359,0 0,-77.49217 -107.33398,0 0,-10.77149 -156.97657,0 z"
         style="display:inline;fill:#54428d;fill-opacity:1;fill-rule:nonzero;stroke:#ffffff;stroke-width:4.13527393;stroke-linejoin:round;stroke-miterlimit:4;stroke-dasharray:none;stroke-dashoffset:0;stroke-opacity:0.65317915" />
      <path
         inkscape:connector-curvature="0"
         id="path4400"
         d="m 128.9567,712.17871 28.21428,0"
         style="display:inline;fill:#cccccc;fill-rule:evenodd;stroke:#ffffff;stroke-width:1px;stroke-linecap:butt;stroke-linejoin:miter;stroke-opacity:0.73410405" />
      <path
         inkscape:connector-curvature="0"
         id="path4400-4"
         d="m 97.298133,848.27022 105.364667,0"
         style="display:inline;fill:#cccccc;fill-rule:evenodd;stroke:#ffffff;stroke-width:1.93247128px;stroke-linecap:butt;stroke-linejoin:miter;stroke-opacity:0.73410405" />
      <path
         inkscape:connector-curvature="0"
         id="path4400-6"
         d="m 385.69667,847.57573 64.10714,0"
         style="display:inline;fill:#cccccc;fill-rule:evenodd;stroke:#ffffff;stroke-width:1.50736594px;stroke-linecap:butt;stroke-linejoin:miter;stroke-opacity:0.73410405" />
      <path
         inkscape:connector-curvature="0"
         id="path4400-9"
         d="m 185.74241,955.21444 35.17857,0"
         style="display:inline;fill:#cccccc;fill-rule:evenodd;stroke:#ffffff;stroke-width:1.11661792px;stroke-linecap:butt;stroke-linejoin:miter;stroke-opacity:0.73410405" />
      <path
         inkscape:connector-curvature="0"
         id="path4400-7"
         d="m 298.68884,954.94658 93.11658,0"
         style="display:inline;fill:#cccccc;fill-rule:evenodd;stroke:#ffffff;stroke-width:1.81668246px;stroke-linecap:butt;stroke-linejoin:miter;stroke-opacity:0.73410405" />
      <path
         inkscape:connector-curvature="0"
         id="path4400-8"
         d="m 280.57074,712.73772 42.32142,0"
         style="display:inline;fill:#cccccc;fill-rule:evenodd;stroke:#ffffff;stroke-width:1.22474492px;stroke-linecap:butt;stroke-linejoin:miter;stroke-opacity:0.73410405" />
      <path
         inkscape:connector-curvature="0"
         id="path4400-5"
         d="m 415.92098,753.25014 34.28571,0"
         style="display:inline;fill:#cccccc;fill-rule:evenodd;stroke:#ffffff;stroke-width:1.10235655px;stroke-linecap:butt;stroke-linejoin:miter;stroke-opacity:0.73410405" />
      <path
         inkscape:connector-curvature="0"
         id="path4400-59"
         d="m 52.220063,781.60013 45.63942,0"
         style="display:inline;fill:#cccccc;fill-rule:evenodd;stroke:#ffffff;stroke-width:1.27184892px;stroke-linecap:butt;stroke-linejoin:miter;stroke-opacity:0.73410405" />
      <path
         inkscape:connector-curvature="0"
         id="path4353"
         d="m 158.06384,573.58944 10.375,-4.375 0,43.375 -10.375,0 z"
         style="fill:#54428d;fill-opacity:0.5317919;fill-rule:evenodd;stroke:#ffffff;stroke-width:1px;stroke-linecap:butt;stroke-linejoin:miter;stroke-opacity:1" />
    </g>
  </g>
</svg>
